<svg width="24" height="24" viewBox="0 0 24 24" fill="none" xmlns="http://www.w3.org/2000/svg">
<path fill-rule="evenodd" clip-rule="evenodd" d="M2.625 3C2.32663 3 2.04048 3.11853 1.8295 3.3295C1.61853 3.54048 1.5 3.82663 1.5 4.125C1.5 4.42337 1.61853 4.70952 1.8295 4.9205C2.04048 5.13147 2.32663 5.25 2.625 5.25H3V18.75H2.625C2.32663 18.75 2.04048 18.8685 1.8295 19.0795C1.61853 19.2905 1.5 19.5766 1.5 19.875C1.5 20.1734 1.61853 20.4595 1.8295 20.6705C2.04048 20.8815 2.32663 21 2.625 21H4.875C5.17337 21 5.45952 20.8815 5.6705 20.6705C5.88147 20.4595 6 20.1734 6 19.875V17.625C6 17.3266 6.11853 17.0405 6.3295 16.8295C6.54048 16.6185 6.82663 16.5 7.125 16.5H9.375C9.67337 16.5 9.95952 16.6185 10.1705 16.8295C10.3815 17.0405 10.5 17.3266 10.5 17.625V19.875C10.5 20.496 11.004 21 11.625 21H12.375C12.6734 21 12.9595 20.8815 13.1705 20.6705C13.3815 20.4595 13.5 20.1734 13.5 19.875V5.25H13.875C14.1734 5.25 14.4595 5.13147 14.6705 4.9205C14.8815 4.70952 15 4.42337 15 4.125C15 3.82663 14.8815 3.54048 14.6705 3.3295C14.4595 3.11853 14.1734 3 13.875 3H2.625ZM5.25 8.25C5.25 8.05109 5.32902 7.86032 5.46967 7.71967C5.61032 7.57902 5.80109 7.5 6 7.5H6.75C6.94891 7.5 7.13968 7.57902 7.28033 7.71967C7.42098 7.86032 7.5 8.05109 7.5 8.25V9C7.5 9.19891 7.42098 9.38968 7.28033 9.53033C7.13968 9.67098 6.94891 9.75 6.75 9.75H6C5.80109 9.75 5.61032 9.67098 5.46967 9.53033C5.32902 9.38968 5.25 9.19891 5.25 9V8.25ZM6 11.25C5.80109 11.25 5.61032 11.329 5.46967 11.4697C5.32902 11.6103 5.25 11.8011 5.25 12V12.75C5.25 12.9489 5.32902 13.1397 5.46967 13.2803C5.61032 13.421 5.80109 13.5 6 13.5H6.75C6.94891 13.5 7.13968 13.421 7.28033 13.2803C7.42098 13.1397 7.5 12.9489 7.5 12.75V12C7.5 11.8011 7.42098 11.6103 7.28033 11.4697C7.13968 11.329 6.94891 11.25 6.75 11.25H6ZM9 8.25C9 8.05109 9.07902 7.86032 9.21967 7.71967C9.36032 7.57902 9.55109 7.5 9.75 7.5H10.5C10.6989 7.5 10.8897 7.57902 11.0303 7.71967C11.171 7.86032 11.25 8.05109 11.25 8.25V9C11.25 9.19891 11.171 9.38968 11.0303 9.53033C10.8897 9.67098 10.6989 9.75 10.5 9.75H9.75C9.55109 9.75 9.36032 9.67098 9.21967 9.53033C9.07902 9.38968 9 9.19891 9 9V8.25ZM9.75 11.25C9.55109 11.25 9.36032 11.329 9.21967 11.4697C9.07902 11.6103 9 11.8011 9 12V12.75C9 12.9489 9.07902 13.1397 9.21967 13.2803C9.36032 13.421 9.55109 13.5 9.75 13.5H10.5C10.6989 13.5 10.8897 13.421 11.0303 13.2803C11.171 13.1397 11.25 12.9489 11.25 12.75V12C11.25 11.8011 11.171 11.6103 11.0303 11.4697C10.8897 11.329 10.6989 11.25 10.5 11.25H9.75ZM17.25 9C16.8522 9 16.4706 9.15804 16.1893 9.43934C15.908 9.72064 15.75 10.1022 15.75 10.5V19.5C15.75 19.8978 15.908 20.2794 16.1893 20.5607C16.4706 20.842 16.8522 21 17.25 21H21.375C21.6734 21 21.9595 20.8815 22.1705 20.6705C22.3815 20.4595 22.5 20.1734 22.5 19.875C22.5 19.5766 22.3815 19.2905 22.1705 19.0795C21.9595 18.8685 21.6734 18.75 21.375 18.75H21V11.25H21.375C21.6734 11.25 21.9595 11.1315 22.1705 10.9205C22.3815 10.7095 22.5 10.4234 22.5 10.125C22.5 9.82663 22.3815 9.54048 22.1705 9.3295C21.9595 9.11853 21.6734 9 21.375 9H17.25ZM18 11.25H18.75C18.9489 11.25 19.1397 11.329 19.2803 11.4697C19.421 11.6103 19.5 11.8011 19.5 12V12.75C19.5 12.9489 19.421 13.1397 19.2803 13.2803C19.1397 13.421 18.9489 13.5 18.75 13.5H18C17.8011 13.5 17.6103 13.421 17.4697 13.2803C17.329 13.1397 17.25 12.9489 17.25 12.75V12C17.25 11.8011 17.329 11.6103 17.4697 11.4697C17.6103 11.329 17.8011 11.25 18 11.25ZM18 15C17.8011 15 17.6103 15.079 17.4697 15.2197C17.329 15.3603 17.25 15.5511 17.25 15.75V16.5C17.25 16.6989 17.329 16.8897 17.4697 17.0303C17.6103 17.171 17.8011 17.25 18 17.25H18.75C18.9489 17.25 19.1397 17.171 19.2803 17.0303C19.421 16.8897 19.5 16.6989 19.5 16.5V15.75C19.5 15.5511 19.421 15.3603 19.2803 15.2197C19.1397 15.079 18.9489 15 18.75 15H18Z" fill="black"/>
</svg>
